<svg xmlns="http://www.w3.org/2000/svg" xmlns:xlink="http://www.w3.org/1999/xlink" viewBox="0 0 1920 952"><defs><style>.a{fill:#fff;stroke:#707070;}.b{clip-path:url(#a);}.c{opacity:0.42;}.c,.f{fill:url(#b);}.d{clip-path:url(#c);}.e{clip-path:url(#d);}</style><clipPath id="a"><rect class="a" width="1920" height="952" transform="translate(0 6537)"/></clipPath><linearGradient id="b" x1="0.031" y1="0.021" x2="0.914" y2="0.6" gradientUnits="objectBoundingBox"><stop offset="0" stop-color="#6876f5"/><stop offset="1" stop-color="#4843de"/></linearGradient><clipPath id="c"><rect class="a" width="147" height="348" transform="translate(1773 5039)"/></clipPath><clipPath id="d"><rect class="a" width="184" height="462" transform="translate(1742 4972)"/></clipPath></defs><g class="b" transform="translate(0 -6537)"><g transform="translate(0 1509)"><rect class="c" width="14.869" height="447.921" rx="7.434" transform="matrix(0.809, -0.588, 0.588, 0.809, 1607.871, 5269.257)"/><g class="d" transform="translate(0 593)"><g class="e"><rect class="f" width="16.727" height="130.102" rx="8.364" transform="matrix(0.819, -0.574, 0.574, 0.819, 1822.034, 5236.441)"/><rect class="f" width="35.313" height="743.438" rx="15" transform="matrix(0.819, -0.574, 0.574, 0.819, 1793.659, 5083.701)"/></g></g></g><g transform="translate(-1622 977)"><rect class="f" width="22.952" height="492.822" rx="11.476" transform="matrix(0.819, -0.574, 0.574, 0.819, 1504.659, 5606.803)"/><rect class="f" width="17.952" height="376.822" rx="8.976" transform="matrix(0.819, -0.574, 0.574, 0.819, 1564.29, 5569.957)"/></g></g></svg>