<svg xmlns="http://www.w3.org/2000/svg" xmlns:xlink="http://www.w3.org/1999/xlink" viewBox="0 0 1812.234 1170.846"><defs><style>.a{fill:#fff;stroke:#707070;}.b,.c{fill:url(#a);}.c{opacity:0.42;}.d{clip-path:url(#f);}.e{clip-path:url(#g);}</style><linearGradient id="a" x1="0.031" y1="0.021" x2="0.914" y2="0.6" gradientUnits="objectBoundingBox"><stop offset="0" stop-color="#6876f5"/><stop offset="1" stop-color="#4843de"/></linearGradient><clipPath id="f"><rect class="a" width="147" height="348" transform="translate(1773 5039)"/></clipPath><clipPath id="g"><rect class="a" width="184" height="462" transform="translate(1742 4972)"/></clipPath></defs><g transform="translate(-107.766 -4216.154)"><rect class="b" width="9.009" height="447.921" rx="4.504" transform="matrix(0.809, -0.588, 0.588, 0.809, 1212.819, 4221.449)"/><rect class="b" width="14.869" height="447.921" rx="7.434" transform="matrix(0.809, -0.588, 0.588, 0.809, 1411.871, 4325.257)"/><rect class="c" width="14.869" height="447.921" rx="7.434" transform="matrix(0.809, -0.588, 0.588, 0.809, 1392.871, 4980.257)"/><rect class="b" width="8.719" height="433.529" rx="4.36" transform="matrix(0.809, -0.588, 0.588, 0.809, 107.766, 4329.408)"/><rect class="b" width="12.719" height="314.529" rx="6.36" transform="matrix(0.809, -0.588, 0.588, 0.809, 138.476, 4460.032)"/><g class="d"><g class="e"><rect class="b" width="16.727" height="130.102" rx="8.364" transform="matrix(0.819, -0.574, 0.574, 0.819, 1822.034, 5236.441)"/><rect class="b" width="35.313" height="743.438" rx="15" transform="matrix(0.819, -0.574, 0.574, 0.819, 1793.659, 5083.701)"/></g></g></g></svg>